<svg width="120" height="120" viewBox="0 0 120 120" fill="none" xmlns="http://www.w3.org/2000/svg">
<rect x="0.5" y="0.5" width="119" height="119" rx="59.5" fill="#FAFAFA"/>
<path d="M61.5 47V40H59.5V47H52.5V49H59.5V56H61.5V49H68.5V47H61.5Z" fill="#232323"/>
<path d="M31.8093 77.716C32.2573 77.796 32.6373 78.032 32.9493 78.424C33.2613 78.816 33.4173 79.26 33.4173 79.756C33.4173 80.18 33.3053 80.564 33.0813 80.908C32.8653 81.244 32.5493 81.512 32.1333 81.712C31.7173 81.904 31.2333 82 30.6813 82H27.3453V73.66H30.5253C31.0933 73.66 31.5813 73.756 31.9893 73.948C32.3973 74.14 32.7053 74.4 32.9133 74.728C33.1213 75.048 33.2253 75.408 33.2253 75.808C33.2253 76.288 33.0973 76.688 32.8413 77.008C32.5853 77.328 32.2413 77.564 31.8093 77.716ZM28.7133 77.164H30.4053C30.8533 77.164 31.2013 77.064 31.4493 76.864C31.7053 76.656 31.8333 76.36 31.8333 75.976C31.8333 75.6 31.7053 75.308 31.4493 75.1C31.2013 74.884 30.8533 74.776 30.4053 74.776H28.7133V77.164ZM30.5613 80.884C31.0253 80.884 31.3893 80.772 31.6533 80.548C31.9173 80.324 32.0493 80.012 32.0493 79.612C32.0493 79.204 31.9093 78.88 31.6293 78.64C31.3493 78.4 30.9773 78.28 30.5133 78.28H28.7133V80.884H30.5613ZM36.2719 76.348C36.4719 76.012 36.7359 75.752 37.0639 75.568C37.3999 75.376 37.7959 75.28 38.2519 75.28V76.696H37.9039C37.3679 76.696 36.9599 76.832 36.6799 77.104C36.4079 77.376 36.2719 77.848 36.2719 78.52V82H34.9039V75.388H36.2719V76.348ZM39.0534 78.664C39.0534 78 39.1894 77.412 39.4614 76.9C39.7414 76.388 40.1174 75.992 40.5894 75.712C41.0694 75.424 41.5974 75.28 42.1734 75.28C42.6934 75.28 43.1454 75.384 43.5294 75.592C43.9214 75.792 44.2334 76.044 44.4654 76.348V75.388H45.8454V82H44.4654V81.016C44.2334 81.328 43.9174 81.588 43.5174 81.796C43.1174 82.004 42.6614 82.108 42.1494 82.108C41.5814 82.108 41.0614 81.964 40.5894 81.676C40.1174 81.38 39.7414 80.972 39.4614 80.452C39.1894 79.924 39.0534 79.328 39.0534 78.664ZM44.4654 78.688C44.4654 78.232 44.3694 77.836 44.1774 77.5C43.9934 77.164 43.7494 76.908 43.4454 76.732C43.1414 76.556 42.8134 76.468 42.4614 76.468C42.1094 76.468 41.7814 76.556 41.4774 76.732C41.1734 76.9 40.9254 77.152 40.7334 77.488C40.5494 77.816 40.4574 78.208 40.4574 78.664C40.4574 79.12 40.5494 79.52 40.7334 79.864C40.9254 80.208 41.1734 80.472 41.4774 80.656C41.7894 80.832 42.1174 80.92 42.4614 80.92C42.8134 80.92 43.1414 80.832 43.4454 80.656C43.7494 80.48 43.9934 80.224 44.1774 79.888C44.3694 79.544 44.4654 79.144 44.4654 78.688ZM50.9782 75.28C51.4982 75.28 51.9622 75.388 52.3702 75.604C52.7862 75.82 53.1102 76.14 53.3422 76.564C53.5742 76.988 53.6902 77.5 53.6902 78.1V82H52.3342V78.304C52.3342 77.712 52.1862 77.26 51.8902 76.948C51.5942 76.628 51.1902 76.468 50.6782 76.468C50.1662 76.468 49.7582 76.628 49.4542 76.948C49.1582 77.26 49.0102 77.712 49.0102 78.304V82H47.6422V75.388H49.0102V76.144C49.2342 75.872 49.5182 75.66 49.8622 75.508C50.2142 75.356 50.5862 75.28 50.9782 75.28ZM54.9792 78.664C54.9792 78 55.1152 77.412 55.3872 76.9C55.6672 76.388 56.0432 75.992 56.5152 75.712C56.9952 75.424 57.5272 75.28 58.1112 75.28C58.5432 75.28 58.9672 75.376 59.3832 75.568C59.8072 75.752 60.1432 76 60.3912 76.312V73.12H61.7712V82H60.3912V81.004C60.1672 81.324 59.8552 81.588 59.4552 81.796C59.0632 82.004 58.6112 82.108 58.0992 82.108C57.5232 82.108 56.9952 81.964 56.5152 81.676C56.0432 81.38 55.6672 80.972 55.3872 80.452C55.1152 79.924 54.9792 79.328 54.9792 78.664ZM60.3912 78.688C60.3912 78.232 60.2952 77.836 60.1032 77.5C59.9192 77.164 59.6752 76.908 59.3712 76.732C59.0672 76.556 58.7392 76.468 58.3872 76.468C58.0352 76.468 57.7072 76.556 57.4032 76.732C57.0992 76.9 56.8512 77.152 56.6592 77.488C56.4752 77.816 56.3832 78.208 56.3832 78.664C56.3832 79.12 56.4752 79.52 56.6592 79.864C56.8512 80.208 57.0992 80.472 57.4032 80.656C57.7152 80.832 58.0432 80.92 58.3872 80.92C58.7392 80.92 59.0672 80.832 59.3712 80.656C59.6752 80.48 59.9192 80.224 60.1032 79.888C60.2952 79.544 60.3912 79.144 60.3912 78.688ZM68.0532 80.896H70.8732V82H66.6852V73.66H68.0532V80.896ZM74.8852 82.108C74.2612 82.108 73.6972 81.968 73.1932 81.688C72.6892 81.4 72.2932 81 72.0052 80.488C71.7172 79.968 71.5732 79.368 71.5732 78.688C71.5732 78.016 71.7212 77.42 72.0172 76.9C72.3132 76.38 72.7172 75.98 73.2292 75.7C73.7412 75.42 74.3132 75.28 74.9452 75.28C75.5772 75.28 76.1492 75.42 76.6612 75.7C77.1732 75.98 77.5772 76.38 77.8732 76.9C78.1692 77.42 78.3172 78.016 78.3172 78.688C78.3172 79.36 78.1652 79.956 77.8612 80.476C77.5572 80.996 77.1412 81.4 76.6132 81.688C76.0932 81.968 75.5172 82.108 74.8852 82.108ZM74.8852 80.92C75.2372 80.92 75.5652 80.836 75.8692 80.668C76.1812 80.5 76.4332 80.248 76.6252 79.912C76.8172 79.576 76.9132 79.168 76.9132 78.688C76.9132 78.208 76.8212 77.804 76.6372 77.476C76.4532 77.14 76.2092 76.888 75.9052 76.72C75.6012 76.552 75.2732 76.468 74.9212 76.468C74.5692 76.468 74.2412 76.552 73.9372 76.72C73.6412 76.888 73.4052 77.14 73.2292 77.476C73.0532 77.804 72.9652 78.208 72.9652 78.688C72.9652 79.4 73.1452 79.952 73.5052 80.344C73.8732 80.728 74.3332 80.92 74.8852 80.92ZM82.3335 75.28C82.8455 75.28 83.2975 75.384 83.6895 75.592C84.0895 75.792 84.4015 76.044 84.6255 76.348V75.388H86.0055V82.108C86.0055 82.716 85.8775 83.256 85.6215 83.728C85.3655 84.208 84.9935 84.584 84.5055 84.856C84.0255 85.128 83.4495 85.264 82.7775 85.264C81.8815 85.264 81.1375 85.052 80.5455 84.628C79.9535 84.212 79.6175 83.644 79.5375 82.924H80.8935C80.9975 83.268 81.2175 83.544 81.5535 83.752C81.8975 83.968 82.3055 84.076 82.7775 84.076C83.3295 84.076 83.7735 83.908 84.1095 83.572C84.4535 83.236 84.6255 82.748 84.6255 82.108V81.004C84.3935 81.316 84.0775 81.58 83.6775 81.796C83.2855 82.004 82.8375 82.108 82.3335 82.108C81.7575 82.108 81.2295 81.964 80.7495 81.676C80.2775 81.38 79.9015 80.972 79.6215 80.452C79.3495 79.924 79.2135 79.328 79.2135 78.664C79.2135 78 79.3495 77.412 79.6215 76.9C79.9015 76.388 80.2775 75.992 80.7495 75.712C81.2295 75.424 81.7575 75.28 82.3335 75.28ZM84.6255 78.688C84.6255 78.232 84.5295 77.836 84.3375 77.5C84.1535 77.164 83.9095 76.908 83.6055 76.732C83.3015 76.556 82.9735 76.468 82.6215 76.468C82.2695 76.468 81.9415 76.556 81.6375 76.732C81.3335 76.9 81.0855 77.152 80.8935 77.488C80.7095 77.816 80.6175 78.208 80.6175 78.664C80.6175 79.12 80.7095 79.52 80.8935 79.864C81.0855 80.208 81.3335 80.472 81.6375 80.656C81.9495 80.832 82.2775 80.92 82.6215 80.92C82.9735 80.92 83.3015 80.832 83.6055 80.656C83.9095 80.48 84.1535 80.224 84.3375 79.888C84.5295 79.544 84.6255 79.144 84.6255 78.688ZM90.6703 82.108C90.0463 82.108 89.4823 81.968 88.9783 81.688C88.4743 81.4 88.0783 81 87.7903 80.488C87.5023 79.968 87.3583 79.368 87.3583 78.688C87.3583 78.016 87.5063 77.42 87.8023 76.9C88.0983 76.38 88.5023 75.98 89.0143 75.7C89.5263 75.42 90.0983 75.28 90.7303 75.28C91.3623 75.28 91.9343 75.42 92.4463 75.7C92.9583 75.98 93.3623 76.38 93.6583 76.9C93.9543 77.42 94.1023 78.016 94.1023 78.688C94.1023 79.36 93.9503 79.956 93.6463 80.476C93.3423 80.996 92.9263 81.4 92.3983 81.688C91.8783 81.968 91.3023 82.108 90.6703 82.108ZM90.6703 80.92C91.0223 80.92 91.3503 80.836 91.6543 80.668C91.9663 80.5 92.2183 80.248 92.4103 79.912C92.6023 79.576 92.6983 79.168 92.6983 78.688C92.6983 78.208 92.6063 77.804 92.4223 77.476C92.2383 77.14 91.9943 76.888 91.6903 76.72C91.3863 76.552 91.0583 76.468 90.7063 76.468C90.3543 76.468 90.0263 76.552 89.7223 76.72C89.4263 76.888 89.1903 77.14 89.0143 77.476C88.8383 77.804 88.7503 78.208 88.7503 78.688C88.7503 79.4 88.9303 79.952 89.2903 80.344C89.6583 80.728 90.1183 80.92 90.6703 80.92Z" fill="#8C8C8C"/>
<rect x="0.5" y="0.5" width="119" height="119" rx="59.5" stroke="#E3E3E3" stroke-dasharray="6 6"/>
</svg>
